<?xml version="1.0" encoding="UTF-8"?>
<svg id="Capa_1" data-name="Capa 1" xmlns="http://www.w3.org/2000/svg" viewBox="0 0 384.71 423.79">
  <defs>
    <style>
      .cls-1 {
        fill: #ff6700;
      }
    </style>
  </defs>
  <path class="cls-1" d="M384.58,241.1c.19,5.13.17,10.93,0,16.07-1.89,56.06-25.95,108.26-74.35,138.26-53.11,32.93-132.09,35.92-190.24,15.5C50.41,386.48.54,326.68,0,251.04c-.06-7.99.78-15.96,1.7-23.95,3.13-27.14,7.66-54.56,12-81.54,2.22-13.82,4.05-28.85,6.99-42.42,1.26-5.79,4.08-7.61,9.88-8.35,23.57-.21,47.23.46,70.73-.48,5.27-.21,12.41.78,13.47-6.19l13.37-83.05c2.48-8.61,14.84-4.03,20.69-2.22,11.64,3.61,23.55,8.24,34.81,12.9,94.29,39.02,196.82,113.38,200.93,225.34ZM170.16,147.13c-.91.17-1.76.9-2.04,1.8-2.17,9.93-2.59,21.01-4.93,30.81-.85,3.57-2.85,2.65-5.8,2.83-.47.03-.92.23-1.43.25-7.85.31-17.42-.86-24.95-.01-1.22.14-2.64.75-3.04,1.99-1.9,10.38-3.66,20.82-5.19,31.27-2.45,16.73-5.2,30.27.91,46.74,14.54,39.16,63.94,52.19,100.83,38.98,42.26-15.14,50.85-66.97,27.36-101.98-15.78-23.52-46.85-42.03-73.4-50.82-2.22-.73-6.12-2.27-8.34-1.86Z"/>
</svg>