<?xml version="1.0" encoding="UTF-8"?>
<svg id="Capa_1" data-name="Capa 1" xmlns="http://www.w3.org/2000/svg" viewBox="0 0 5271 1634">
  <path d="M2611.02.31c-1.68.5-4.64,3.36-4.64,4.48,0,1.34-11.81,74.31-12.31,76.16-.78,2.74-2.74,4.2-6.27,4.64-1.62.22-18.86.56-38.27.78-34.58.34-35.42.34-36.93,1.51-3.36,2.46-3.36,2.52-8,31.28-7.44,45.61-11.36,72.3-13.54,91.21-2.57,22.61-.39,43.59,6.6,64.63,13.6,40.96,45.21,74.65,87.74,93.45,19.03,8.45,39.62,13.71,63.51,16.34,9.46,1.01,35.2.84,45.89-.34,38.67-4.2,68.38-15.56,92.78-35.53,27.36-22.44,44.71-54.78,50.53-94.34,4.87-33.35.9-65.81-11.92-95.97-21.82-51.42-72.07-98.04-142.86-132.4-19.64-9.51-43.98-19.36-59.09-23.89-7.39-2.24-10.74-2.74-13.21-2.01ZM2652.43,135.73c2.85,1.01,8.56,3.25,12.7,5.09,31.62,13.77,53.66,33.91,61.83,56.41,4.64,12.93,4.87,30.11.56,43.37-6.44,19.7-22.05,32.62-44.77,37.04-7.78,1.51-24.9,1.34-32.62-.28-17.57-3.81-32.29-13.09-41.02-25.96-3.41-5.04-7.05-12.98-8.45-18.69-.95-3.97-1.23-6.55-1.23-12.81.06-7.95.28-9.79,4.42-36.37,2.41-15.05,2.74-16.4,4.36-16.79.67-.17,7.44-.34,15.05-.39,9.29-.11,14.05-.39,14.44-.78.34-.34,1.68-7.16,2.97-15.16,1.34-8.17,2.69-14.94,3.13-15.5,1.06-1.29,2.85-1.12,8.62.84Z"/>
  <path d="M1435.97,56.83l-56.63,56.63-57.24-34.64c-41.46-25.01-57.86-34.64-59.31-34.81-1.51-.17-2.41.11-3.53,1.12-1.4,1.18-5.82,16.34-49.63,169.38-26.41,92.44-48.07,168.32-48.07,168.6,0,.22,33.07.45,73.47.45h73.42l2.52-5.76c1.34-3.13,7.44-16.51,13.49-29.77,7.78-17.01,11.42-24.34,12.42-25.12,2.29-1.68,5.15-1.34,9.62,1.18,4.98,2.8,31.45,16.51,33.13,17.12.78.28,1.73.17,2.57-.28.73-.39,13.77-15.22,28.93-32.9,15.16-17.68,28.15-32.51,28.87-32.9,1.06-.56,1.68-.56,3.25.11,1.73.73,2.07,1.23,3.13,4.64.62,2.07,8,26.19,16.4,53.61l15.28,49.8,73.7.17c40.57.06,73.64-.06,73.53-.28-.22-.39-118.41-358.97-123.22-373.91-2.46-7.55-3.58-9.01-7.11-9.01h-2.41l-56.57,56.57Z"/>
  <path d="M2278.74,56.77c-31.11,31.06-56.68,56.52-56.91,56.52s-23.89-14.21-52.6-31.5c-28.71-17.35-54.56-32.96-57.47-34.69-5.99-3.64-7.67-3.92-10.07-1.68-1.57,1.45-4.7,12.14-49.58,169.16-26.36,92.16-48.01,168.04-48.18,168.54-.28.95,3.47,1.01,73.25,1.01h73.58l.73-1.85c.9-2.29,15.78-35.09,21.71-47.96,2.57-5.6,5.15-10.35,5.99-11.08,1.62-1.45,5.48-1.68,7.22-.45.62.39,7.78,4.2,15.95,8.45s16,8.34,17.51,9.07c1.73.95,3.08,1.29,4.03,1.06s10.52-10.97,29.71-33.35c27.98-32.62,28.37-33.01,30.44-33.01,1.29,0,2.41.39,2.97,1.01.5.56,8.23,24.9,17.18,54.05,8.9,29.1,16.34,53.22,16.51,53.5.45.67,146.89.78,146.89.11,0-.28-28.2-86.06-62.67-190.7C2336.66-14.41,2341.81.25,2337.33.25c-1.96,0-4.03,2.01-58.59,56.52Z"/>
  <path d="M1667.97,192.47v191.65h293.22v-134.86h-158.36v-45.33h128.7v-25.18h-128.7v-43.09h158.36V.81h-293.22v191.65Z"/>
  <path d="M2894,192.41v191.71h119.58l.34-2.13c.17-1.12,1.73-14.66,3.47-30.05s3.36-28.54,3.64-29.27c.39-.84,1.01-1.23,2.07-1.23,1.34,0,5.71,4.48,30.55,31.34l28.99,31.34h61.55c33.8,0,61.5-.11,61.5-.22,0-.17-21.94-34.92-48.74-77.28s-48.63-77.11-48.52-77.17c.11-.11,4.31-1.45,9.4-3.08,48.18-15.44,73.75-44.15,80.35-90.43,1.23-8.39,1.4-30.83.28-39.17-5.93-45.77-30.16-73.58-75.43-86.68-12.87-3.69-29.27-6.44-49.13-8.23-4.98-.45-34.3-.73-93.56-.9l-86.34-.22v191.65ZM3047.04,88.16c17.29,2.13,28.82,8.34,33.69,18.3,1.96,3.97,2.13,4.64,2.29,10.24.11,3.3-.06,7.27-.39,8.9-2.74,12.76-14.66,21.15-33.24,23.5-2.52.28-10.8.56-18.41.56h-13.88v-62.11h12.48c6.83,0,14.72.28,17.46.62Z"/>
  <path d="M3252.12,192.47v191.65h137.1V.81h-137.1v191.65Z"/>
  <path d="M3441.82,192.47v191.65h293.22v-134.86h-158.36v-45.33h128.7v-25.18h-128.7v-43.09h158.36V.81h-293.22v191.65Z"/>
  <path d="M4069.94,1.43c-37.66,3.02-68.04,14.33-91.49,33.97-24.96,20.93-43.87,49.97-62.06,95.35-31.73,79.24-54.05,106.21-95.24,115.1-8.45,1.79-18.35,2.85-30.55,3.25l-11.36.34v134.8l30.38-.28c23.39-.17,32.18-.45,38.44-1.18,46.11-5.32,80.19-18.35,110.24-42.19,6.88-5.48,21.99-20.65,27.75-27.87,10.63-13.26,20.09-28.2,27.92-44.15,5.99-12.2,9.57-20.7,16.23-39,15.33-41.86,23.95-59.82,35.37-73.92,10.18-12.42,22.77-19.14,38.33-20.31l4.92-.39V.81l-16.62.06c-9.18.06-19.19.28-22.27.56Z"/>
  <path d="M3815.56,713.88c-54.05,106.21-98.15,193.33-98.04,193.56.11.28,36.6.45,81.03.45h80.86l1.34-2.13c.73-1.12,8.06-14.16,16.28-28.93,8.23-14.77,15.33-27.31,15.78-27.81,1.23-1.4,3.75-1.79,5.54-.84,1.12.62,5.43,7.78,17.85,30.11l16.4,29.32,78.51.17c43.2.06,78.68-.06,78.9-.28.28-.34-186.51-368.7-194.4-383.31l-1.85-3.53-98.21,193.22Z"/>
  <path d="M1487.23,716.96v190.37l44.32-.11,44.37-.17,9.62-27.64c5.32-15.22,10.02-28.03,10.46-28.48,1.79-1.79,3.41-.9,19.98,11.47,17.51,13.04,37.94,27.75,53.27,38.39l9.4,6.55h132.56v-371h-132.62l-.11,89.36-.17,89.31-86.17-84.94c-47.4-46.67-90.37-89.08-95.52-94.23l-9.4-9.29v190.42Z"/>
  <path d="M2699.82,716.96v190.37h101.56l9.74-28.03c6.71-19.19,10.07-28.15,10.74-28.54.56-.28,1.45-.5,2.01-.5s7.83,5.09,16.12,11.25c18.13,13.54,32.34,23.84,50.36,36.43l13.43,9.4h120.03v-371h-132.62l-.11,89.36-.17,89.42-82.26-81.08c-45.21-44.6-88.24-87.01-95.52-94.29l-13.32-13.21v190.42Z"/>
  <path d="M2194.25,530.79c-70.06,6.04-125.51,41.18-154.27,97.81-13.37,26.36-20.2,55.17-20.98,88.19-.73,31.78,3.81,58.7,14.21,85.06,9.07,22.94,21.15,41.35,38.5,58.81,13.82,13.88,27.2,23.5,45.05,32.4,21.82,10.91,45.55,17.4,72.74,19.92,9.01.84,30.78.84,39.73,0,27.98-2.63,52.77-9.51,75.49-21.04,10.97-5.54,26.92-16.06,26.92-17.68,0-.39-63.23-115.05-64.13-116.22-.06-.11-1.96,1.18-4.25,2.85-12.65,9.34-25.4,14.21-41.07,15.61-13.6,1.23-25.52-.73-36.32-5.99-10.52-5.09-17.74-12.2-22.66-22.38-3.3-6.66-4.81-12.31-5.65-20.54-1.06-11.08.62-20.93,5.37-30.5,7.55-15.28,21.66-25.57,39.95-29.04,6.44-1.23,18.35-1.23,24.96,0,10.63,2.01,21.32,6.55,29.88,12.7,4.48,3.19,4.81,3.36,5.54,2.35,1.57-2.13,68.38-113.65,68.38-114.15,0-.34-2.35-2.18-5.15-4.2-26.08-18.35-58.36-30.11-92.5-33.74-8.56-.9-30.27-1.01-39.73-.22Z"/>
  <path d="M3390.34,720.93v186.95h57.92c45.89,0,58.03-.17,58.2-.73.11-.34,1.73-13.93,3.58-30.16,1.85-16.23,3.47-29.77,3.69-30.11.17-.28,1.01-.56,1.85-.56,1.29,0,5.88,4.64,29.99,30.78l28.48,30.78h59.76c32.9,0,59.82-.11,59.82-.28s-21.32-33.97-47.34-75.09c-26.02-41.18-47.34-75.04-47.4-75.32s2.91-1.45,6.6-2.57c51.93-15.84,78.06-47.73,81.53-99.38,1.79-27.42-3.92-53.89-15.56-71.74-17.01-26.24-45.89-41.02-90.87-46.56-19.36-2.41-22.16-2.46-107.55-2.69l-82.71-.22v186.9ZM3539.86,619.42c20.09,2.63,31.67,10.91,34.08,24.34,1.12,6.6-.28,14.77-3.58,19.92-1.96,3.19-7.27,7.83-11.02,9.74-8.73,4.42-16.12,5.6-34.75,5.6h-14.49v-60.43h11.7c7.22,0,14.21.34,18.07.84Z"/>
  <path d="M1160.99,721.83v185.5h283.7v-130.38h-152.76v-43.65h124.23v-24.62h-124.23v-41.97h152.76v-130.38h-283.7v185.5Z"/>
  <path d="M2373.59,721.83v185.5h283.7v-130.38h-153.32v-43.65h124.79v-24.62h-124.79v-41.97h153.32v-130.38h-283.7v185.5Z"/>
  <path d="M3065.78,721.88v185.5l55.29-.22c47.56-.17,56.35-.34,63.34-1.18,41.8-4.87,73.81-16.34,99.6-35.64,33.8-25.24,54.28-62.22,61.22-110.74,3.19-22.1,3.41-50.64.56-71.91-5.26-39.51-20.2-71.68-44.43-95.97-29.66-29.6-73.36-47.79-128.42-53.38-15.56-1.62-29.49-2.01-68.38-2.01h-38.78v185.55ZM3186.6,669.51c27.98,2.46,42.42,18.13,44.04,47.79.73,12.48-1.45,24.45-5.99,33.85-2.41,4.98-3.53,6.55-7.44,10.46-3.86,3.81-5.48,4.98-9.9,7.11-8.62,4.14-10.41,4.42-27.75,4.7l-15.28.28v-104.75h8c4.36,0,10.8.28,14.33.56Z"/>
</svg>